<mxfile host="Electron" modified="2023-04-29T14:49:16.460Z" agent="Mozilla/5.0 (Windows NT 10.0; Win64; x64) AppleWebKit/537.36 (KHTML, like Gecko) draw.io/21.2.1 Chrome/112.0.5615.87 Electron/24.1.2 Safari/537.36" etag="AxlvrXvtaxF4rHhnQ3n0" version="21.2.1" type="device">
  <diagram name="Pagina-1" id="EHZWf8nen00D1bTcrAxR">
    <mxGraphModel dx="1844" dy="3519" grid="1" gridSize="10" guides="1" tooltips="1" connect="1" arrows="1" fold="1" page="1" pageScale="1" pageWidth="827" pageHeight="1169" math="0" shadow="0">
      <root>
        <mxCell id="0" />
        <mxCell id="1" parent="0" />
        <mxCell id="ynwoLnUJS0dxDrimRSFe-3" value="&lt;p style=&quot;margin:0px;margin-top:4px;text-align:center;&quot;&gt;&lt;b&gt;GameBoard&lt;/b&gt;&lt;/p&gt;&lt;hr size=&quot;1&quot;&gt;&lt;p style=&quot;margin:0px;margin-left:4px;&quot;&gt;&lt;span style=&quot;background-color: initial;&quot;&gt;+bag:ItemBag&lt;/span&gt;&lt;/p&gt;&lt;p style=&quot;margin:0px;margin-left:4px;&quot;&gt;&lt;span style=&quot;background-color: initial;&quot;&gt;+livingRoom:LivingRoom&lt;/span&gt;&lt;/p&gt;&lt;hr size=&quot;1&quot;&gt;&lt;p style=&quot;margin:0px;margin-left:4px;&quot;&gt;+ getLivingRoom(): LivingRoom&lt;/p&gt;&lt;p style=&quot;margin:0px;margin-left:4px;&quot;&gt;+ getTileBag(): ItemBag&lt;/p&gt;&lt;p style=&quot;margin:0px;margin-left:4px;&quot;&gt;&lt;br&gt;&lt;/p&gt;&lt;p style=&quot;margin:0px;margin-left:4px;&quot;&gt;&lt;br&gt;&lt;/p&gt;" style="verticalAlign=top;align=left;overflow=fill;fontSize=12;fontFamily=Helvetica;html=1;whiteSpace=wrap;movable=1;resizable=1;rotatable=1;deletable=1;editable=1;connectable=1;" parent="1" vertex="1">
          <mxGeometry x="530" y="-2020" width="200" height="120" as="geometry" />
        </mxCell>
        <mxCell id="ynwoLnUJS0dxDrimRSFe-4" value="&lt;p style=&quot;margin:0px;margin-top:4px;text-align:center;&quot;&gt;&lt;b&gt;Player&lt;/b&gt;&lt;/p&gt;&lt;hr size=&quot;1&quot;&gt;&lt;p style=&quot;margin:0px;margin-left:4px;&quot;&gt;- nickname: String {readOnly,unique}&lt;/p&gt;&lt;p style=&quot;margin:0px;margin-left:4px;&quot;&gt;&lt;span style=&quot;background-color: initial;&quot;&gt;- points: int&lt;/span&gt;&lt;/p&gt;&lt;p style=&quot;margin:0px;margin-left:4px;&quot;&gt;&lt;span style=&quot;background-color: initial;&quot;&gt;- shelf: Shelf&lt;/span&gt;&lt;/p&gt;&lt;hr size=&quot;1&quot;&gt;&lt;p style=&quot;margin:0px;margin-left:4px;&quot;&gt;+ getShelf(): Shelf&lt;/p&gt;&lt;p style=&quot;margin:0px;margin-left:4px;&quot;&gt;&lt;span style=&quot;background-color: initial;&quot;&gt;+ getName(): String&lt;/span&gt;&lt;br&gt;&lt;/p&gt;&lt;p style=&quot;margin:0px;margin-left:4px;&quot;&gt;+ calculatePoints(): int&lt;/p&gt;&lt;p style=&quot;margin:0px;margin-left:4px;&quot;&gt;+getPersonalGoal():PersonalGoal&amp;nbsp;&lt;/p&gt;&lt;p style=&quot;margin:0px;margin-left:4px;&quot;&gt;+getCommonGoal():CommonGoal&lt;/p&gt;&lt;p style=&quot;margin:0px;margin-left:4px;&quot;&gt;+ checkPersonalGoal():Boolean&lt;/p&gt;&lt;p style=&quot;margin:0px;margin-left:4px;&quot;&gt;+ checkCommonGoal():Boolean&lt;/p&gt;&lt;p style=&quot;border-color: var(--border-color); margin: 0px 0px 0px 4px;&quot;&gt;+ insertTile(x: int, y: int, tile: ItemTile,shelf:Shelf): void&lt;/p&gt;&lt;p style=&quot;border-color: var(--border-color); margin: 0px 0px 0px 4px;&quot;&gt;&lt;br style=&quot;border-color: var(--border-color);&quot;&gt;&lt;/p&gt;&lt;p style=&quot;margin:0px;margin-left:4px;&quot;&gt;&lt;br&gt;&lt;/p&gt;&lt;p style=&quot;margin:0px;margin-left:4px;&quot;&gt;&lt;br&gt;&lt;/p&gt;" style="verticalAlign=top;align=left;overflow=fill;fontSize=12;fontFamily=Helvetica;html=1;whiteSpace=wrap;movable=1;resizable=1;rotatable=1;deletable=1;editable=1;connectable=1;" parent="1" vertex="1">
          <mxGeometry x="-10" y="-2030" width="200" height="250" as="geometry" />
        </mxCell>
        <mxCell id="ynwoLnUJS0dxDrimRSFe-6" value="&lt;p style=&quot;margin:0px;margin-top:4px;text-align:center;&quot;&gt;&lt;b&gt;GameModel&lt;/b&gt;&lt;/p&gt;&lt;hr size=&quot;1&quot;&gt;&lt;p style=&quot;margin:0px;margin-left:4px;&quot;&gt;- chairOwner: String&lt;/p&gt;&lt;p style=&quot;margin:0px;margin-left:4px;&quot;&gt;&lt;span style=&quot;background-color: initial;&quot;&gt;- playersNumber: int&lt;/span&gt;&lt;br&gt;&lt;/p&gt;&lt;p style=&quot;margin:0px;margin-left:4px;&quot;&gt;- currPlayer: String&lt;/p&gt;&lt;p style=&quot;margin:0px;margin-left:4px;&quot;&gt;- matchWinner: String&lt;/p&gt;&lt;p style=&quot;margin:0px;margin-left:4px;&quot;&gt;-myShelfie:GameBoard&lt;/p&gt;&lt;p style=&quot;margin:0px;margin-left:4px;&quot;&gt;-playersInGame:List&amp;lt;Player&amp;gt;&lt;/p&gt;&lt;p style=&quot;margin:0px;margin-left:4px;&quot;&gt;-endGame : Boolean&lt;/p&gt;&lt;hr size=&quot;1&quot;&gt;&lt;p style=&quot;margin:0px;margin-left:4px;&quot;&gt;+ setChair(Player): void&lt;/p&gt;&lt;p style=&quot;margin:0px;margin-left:4px;&quot;&gt;&lt;span style=&quot;background-color: initial;&quot;&gt;+ getPlayers(): List&amp;lt;Player&amp;gt;&lt;/span&gt;&lt;br&gt;&lt;/p&gt;&lt;p style=&quot;margin:0px;margin-left:4px;&quot;&gt;&lt;span style=&quot;background-color: initial;&quot;&gt;+ addPlayer(String): void&lt;/span&gt;&lt;/p&gt;&lt;p style=&quot;margin:0px;margin-left:4px;&quot;&gt;&lt;span style=&quot;background-color: initial;&quot;&gt;+ getPlayer(String): Player&lt;/span&gt;&lt;/p&gt;&lt;p style=&quot;margin:0px;margin-left:4px;&quot;&gt;&lt;span style=&quot;background-color: initial;&quot;&gt;+ generateBoard(): GameBoard&lt;/span&gt;&lt;/p&gt;&lt;p style=&quot;margin:0px;margin-left:4px;&quot;&gt;&lt;span style=&quot;background-color: initial;&quot;&gt;+ nextTurn(): void&lt;/span&gt;&lt;/p&gt;&lt;p style=&quot;margin:0px;margin-left:4px;&quot;&gt;&lt;span style=&quot;background-color: initial;&quot;&gt;+ getTurnOrder(): List&amp;lt;Player&amp;gt;&lt;/span&gt;&lt;/p&gt;&lt;p style=&quot;margin:0px;margin-left:4px;&quot;&gt;&lt;span style=&quot;background-color: initial;&quot;&gt;+ getCurrPlayer(): Player&lt;/span&gt;&lt;/p&gt;&lt;p style=&quot;margin:0px;margin-left:4px;&quot;&gt;+ launchTerminate():Player&lt;/p&gt;&lt;p style=&quot;margin:0px;margin-left:4px;&quot;&gt;&lt;span style=&quot;background-color: initial;&quot;&gt;+ setWinner()&lt;/span&gt;&lt;/p&gt;&lt;p style=&quot;margin:0px;margin-left:4px;&quot;&gt;&lt;span style=&quot;background-color: initial;&quot;&gt;&lt;br&gt;&lt;/span&gt;&lt;/p&gt;&lt;p style=&quot;margin:0px;margin-left:4px;&quot;&gt;&lt;span style=&quot;background-color: initial;&quot;&gt;&lt;br&gt;&lt;/span&gt;&lt;/p&gt;&lt;p style=&quot;margin:0px;margin-left:4px;&quot;&gt;&lt;span style=&quot;background-color: initial;&quot;&gt;&lt;br&gt;&lt;/span&gt;&lt;/p&gt;&lt;p style=&quot;margin:0px;margin-left:4px;&quot;&gt;&lt;span style=&quot;background-color: initial;&quot;&gt;&lt;br&gt;&lt;/span&gt;&lt;/p&gt;" style="verticalAlign=top;align=left;overflow=fill;fontSize=12;fontFamily=Helvetica;html=1;whiteSpace=wrap;movable=1;resizable=1;rotatable=1;deletable=1;editable=1;connectable=1;" parent="1" vertex="1">
          <mxGeometry x="234" y="-2300" width="240" height="280" as="geometry" />
        </mxCell>
        <mxCell id="ynwoLnUJS0dxDrimRSFe-12" value="&lt;p style=&quot;margin:0px;margin-top:4px;text-align:center;&quot;&gt;&lt;b&gt;Shelf&lt;/b&gt;&lt;/p&gt;&lt;hr size=&quot;1&quot;&gt;&lt;p style=&quot;margin:0px;margin-left:4px;&quot;&gt;- structure: ItemTile[][]&lt;/p&gt;&lt;hr size=&quot;1&quot;&gt;&lt;p style=&quot;margin:0px;margin-left:4px;&quot;&gt;+ isFull(): Boolean&lt;/p&gt;&lt;p style=&quot;margin:0px;margin-left:4px;&quot;&gt;+ getTile(x: int, y: int): ItemTile&lt;/p&gt;&lt;p style=&quot;margin:0px;margin-left:4px;&quot;&gt;&lt;br&gt;&lt;/p&gt;&lt;p style=&quot;margin:0px;margin-left:4px;&quot;&gt;&lt;br&gt;&lt;/p&gt;" style="verticalAlign=top;align=left;overflow=fill;fontSize=12;fontFamily=Helvetica;html=1;whiteSpace=wrap;movable=1;resizable=1;rotatable=1;deletable=1;editable=1;connectable=1;" parent="1" vertex="1">
          <mxGeometry x="-330" y="-2020" width="180" height="170" as="geometry" />
        </mxCell>
        <mxCell id="ynwoLnUJS0dxDrimRSFe-14" value="&lt;p style=&quot;margin:0px;margin-top:4px;text-align:center;&quot;&gt;&lt;b&gt;LivingRoom&lt;/b&gt;&lt;/p&gt;&lt;hr size=&quot;1&quot;&gt;&amp;nbsp;- endGameTile: Tile&lt;br&gt;&lt;p style=&quot;margin:0px;margin-left:4px;&quot;&gt;- gameTable: ItemTile[][]&lt;/p&gt;&lt;p style=&quot;margin:0px;margin-left:4px;&quot;&gt;&lt;br&gt;&lt;/p&gt;&lt;hr size=&quot;1&quot;&gt;&lt;p style=&quot;margin:0px;margin-left:4px;&quot;&gt;+ pickCommonGoal(); CommonGoal&lt;/p&gt;&lt;p style=&quot;margin:0px;margin-left:4px;&quot;&gt;+ placeItem(tile: ItemTile): void&lt;/p&gt;&lt;p style=&quot;margin:0px;margin-left:4px;&quot;&gt;+ removeItem(tile:ItemTile):void&lt;/p&gt;&lt;p style=&quot;margin:0px;margin-left:4px;&quot;&gt;&lt;br&gt;&lt;/p&gt;" style="verticalAlign=top;align=left;overflow=fill;fontSize=12;fontFamily=Helvetica;html=1;whiteSpace=wrap;movable=1;resizable=1;rotatable=1;deletable=1;editable=1;connectable=1;" parent="1" vertex="1">
          <mxGeometry x="525" y="-1810" width="210" height="150" as="geometry" />
        </mxCell>
        <mxCell id="ynwoLnUJS0dxDrimRSFe-15" value="&lt;p style=&quot;margin:0px;margin-top:4px;text-align:center;&quot;&gt;&lt;b&gt;{abstract }&lt;/b&gt;&lt;/p&gt;&lt;p style=&quot;margin:0px;margin-top:4px;text-align:center;&quot;&gt;&lt;b&gt;Card&lt;/b&gt;&lt;/p&gt;&lt;hr size=&quot;1&quot;&gt;&lt;p style=&quot;margin:0px;margin-left:4px;&quot;&gt;&lt;br&gt;&lt;/p&gt;&lt;hr size=&quot;1&quot;&gt;&lt;p style=&quot;margin:0px;margin-left:4px;&quot;&gt;+ checkGoal():abstract&lt;/p&gt;&lt;p style=&quot;margin:0px;margin-left:4px;&quot;&gt;+ getPoint():abstract&lt;/p&gt;" style="verticalAlign=top;align=left;overflow=fill;fontSize=12;fontFamily=Helvetica;html=1;whiteSpace=wrap;movable=1;resizable=1;rotatable=1;deletable=1;editable=1;connectable=1;" parent="1" vertex="1">
          <mxGeometry x="790" y="-1818" width="200" height="130" as="geometry" />
        </mxCell>
        <mxCell id="ynwoLnUJS0dxDrimRSFe-30" value="&lt;p style=&quot;margin:0px;margin-top:4px;text-align:center;&quot;&gt;&lt;b&gt;ItemTile&lt;/b&gt;&lt;/p&gt;&lt;hr size=&quot;1&quot;&gt;&lt;p style=&quot;margin:0px;margin-left:4px;&quot;&gt;- type: ItemsTileType&lt;/p&gt;&lt;hr size=&quot;1&quot;&gt;&lt;p style=&quot;margin:0px;margin-left:4px;&quot;&gt;&lt;br&gt;&lt;/p&gt;" style="verticalAlign=top;align=left;overflow=fill;fontSize=12;fontFamily=Helvetica;html=1;whiteSpace=wrap;movable=1;resizable=1;rotatable=1;deletable=1;editable=1;connectable=1;" parent="1" vertex="1">
          <mxGeometry x="-310" y="-1640" width="160" height="80" as="geometry" />
        </mxCell>
        <mxCell id="ynwoLnUJS0dxDrimRSFe-31" value="&lt;p style=&quot;margin:0px;margin-top:4px;text-align:center;&quot;&gt;&lt;b&gt;ItemBag&lt;/b&gt;&lt;/p&gt;&lt;hr size=&quot;1&quot;&gt;&lt;p style=&quot;margin:0px;margin-left:4px;&quot;&gt;- bag: List &amp;lt;ItemTile&amp;gt;&lt;/p&gt;&lt;hr size=&quot;1&quot;&gt;&lt;p style=&quot;margin:0px;margin-left:4px;&quot;&gt;+ putTiles(List&amp;lt;ItemTile&amp;gt;): void&lt;/p&gt;&lt;p style=&quot;margin:0px;margin-left:4px;&quot;&gt;+ pickTile(): ItemTile&lt;/p&gt;" style="verticalAlign=top;align=left;overflow=fill;fontSize=12;fontFamily=Helvetica;html=1;whiteSpace=wrap;movable=1;resizable=1;rotatable=1;deletable=1;editable=1;connectable=1;" parent="1" vertex="1">
          <mxGeometry x="259" y="-1710" width="190" height="140" as="geometry" />
        </mxCell>
        <mxCell id="ynwoLnUJS0dxDrimRSFe-34" value="&lt;p style=&quot;margin:0px;margin-top:4px;text-align:center;&quot;&gt;&lt;b&gt;CommonGoal&lt;/b&gt;&lt;/p&gt;&lt;hr size=&quot;1&quot;&gt;&lt;p style=&quot;margin:0px;margin-left:4px;&quot;&gt;- commonGoal: CommonGoalType&lt;/p&gt;&lt;p style=&quot;margin:0px;margin-left:4px;&quot;&gt;-token_card:List&amp;lt;ScoringToken&amp;gt;&lt;/p&gt;&lt;hr size=&quot;1&quot;&gt;&lt;p style=&quot;margin:0px;margin-left:4px;&quot;&gt;+ checkGoal(): Boolean&lt;/p&gt;&lt;p style=&quot;margin:0px;margin-left:4px;&quot;&gt;+ getPoint():int&lt;/p&gt;" style="verticalAlign=top;align=left;overflow=fill;fontSize=12;fontFamily=Helvetica;html=1;whiteSpace=wrap;movable=1;resizable=1;rotatable=1;deletable=1;editable=1;connectable=1;" parent="1" vertex="1">
          <mxGeometry x="537.5" y="-1560" width="185" height="140" as="geometry" />
        </mxCell>
        <mxCell id="ynwoLnUJS0dxDrimRSFe-35" value="&lt;p style=&quot;margin:0px;margin-top:4px;text-align:center;&quot;&gt;&lt;b&gt;PersonalGoal&lt;/b&gt;&lt;/p&gt;&lt;hr size=&quot;1&quot;&gt;&lt;p style=&quot;margin:0px;margin-left:4px;&quot;&gt;&lt;br&gt;&lt;/p&gt;&lt;hr size=&quot;1&quot;&gt;&lt;p style=&quot;margin:0px;margin-left:4px;&quot;&gt;+ checkGoal(): boolean&lt;/p&gt;&lt;p style=&quot;margin:0px;margin-left:4px;&quot;&gt;&lt;span style=&quot;background-color: initial;&quot;&gt;+getpoints():int&lt;/span&gt;&lt;br&gt;&lt;/p&gt;&lt;p style=&quot;margin:0px;margin-left:4px;&quot;&gt;&lt;br&gt;&lt;/p&gt;" style="verticalAlign=top;align=left;overflow=fill;fontSize=12;fontFamily=Helvetica;html=1;whiteSpace=wrap;movable=1;resizable=1;rotatable=1;deletable=1;editable=1;connectable=1;" parent="1" vertex="1">
          <mxGeometry x="810" y="-1600" width="160" height="110" as="geometry" />
        </mxCell>
        <mxCell id="_8RxwVeukJIN0M9jdHfJ-25" value="- shelf" style="text;html=1;align=center;verticalAlign=middle;resizable=0;points=[];autosize=1;strokeColor=none;fillColor=none;fontFamily=Helvetica;" parent="1" vertex="1">
          <mxGeometry x="-160" y="-1940" width="60" height="30" as="geometry" />
        </mxCell>
        <mxCell id="_8RxwVeukJIN0M9jdHfJ-27" value="" style="endArrow=open;startArrow=none;endFill=0;startFill=0;endSize=8;html=1;verticalAlign=bottom;labelBackgroundColor=none;strokeWidth=1;rounded=0;strokeColor=default;fontFamily=Helvetica;jumpStyle=none;entryX=1;entryY=0.5;entryDx=0;entryDy=0;" parent="1" target="ynwoLnUJS0dxDrimRSFe-12" edge="1">
          <mxGeometry width="160" relative="1" as="geometry">
            <mxPoint x="-10" y="-1935" as="sourcePoint" />
            <mxPoint x="-230" y="-1935" as="targetPoint" />
            <Array as="points" />
          </mxGeometry>
        </mxCell>
        <mxCell id="_8RxwVeukJIN0M9jdHfJ-30" value="0..4" style="text;strokeColor=none;align=center;fillColor=none;html=1;verticalAlign=middle;whiteSpace=wrap;rounded=0;fontFamily=Helvetica;rotation=270;" parent="1" vertex="1">
          <mxGeometry x="100" y="-2070" width="60" height="30" as="geometry" />
        </mxCell>
        <mxCell id="_8RxwVeukJIN0M9jdHfJ-31" value="" style="endArrow=open;startArrow=none;endFill=0;startFill=0;endSize=8;html=1;verticalAlign=bottom;labelBackgroundColor=none;strokeWidth=1;rounded=0;strokeColor=default;fontFamily=Helvetica;jumpStyle=none;entryX=0.5;entryY=0;entryDx=0;entryDy=0;exitX=1.004;exitY=0.404;exitDx=0;exitDy=0;exitPerimeter=0;" parent="1" source="ynwoLnUJS0dxDrimRSFe-6" target="ynwoLnUJS0dxDrimRSFe-3" edge="1">
          <mxGeometry width="160" relative="1" as="geometry">
            <mxPoint x="480" y="-2165" as="sourcePoint" />
            <mxPoint x="440" y="-2050" as="targetPoint" />
            <Array as="points">
              <mxPoint x="630" y="-2187" />
            </Array>
          </mxGeometry>
        </mxCell>
        <mxCell id="_8RxwVeukJIN0M9jdHfJ-32" value="- gameBoard" style="text;strokeColor=none;align=center;fillColor=none;html=1;verticalAlign=middle;whiteSpace=wrap;rounded=0;fontFamily=Helvetica;rotation=-90;" parent="1" vertex="1">
          <mxGeometry x="575" y="-2080" width="80" height="30" as="geometry" />
        </mxCell>
        <mxCell id="_8RxwVeukJIN0M9jdHfJ-33" value="0..1" style="text;strokeColor=none;align=center;fillColor=none;html=1;verticalAlign=middle;whiteSpace=wrap;rounded=0;fontFamily=Helvetica;" parent="1" vertex="1">
          <mxGeometry x="620" y="-2050" width="60" height="30" as="geometry" />
        </mxCell>
        <mxCell id="_8RxwVeukJIN0M9jdHfJ-36" value="0..4" style="text;strokeColor=none;align=center;fillColor=none;html=1;verticalAlign=middle;whiteSpace=wrap;rounded=0;fontFamily=Helvetica;rotation=270;" parent="1" vertex="1">
          <mxGeometry y="-2080" width="60" height="30" as="geometry" />
        </mxCell>
        <mxCell id="_8RxwVeukJIN0M9jdHfJ-37" value="- turnOrder" style="text;strokeColor=none;align=center;fillColor=none;html=1;verticalAlign=middle;whiteSpace=wrap;rounded=0;fontFamily=Helvetica;rotation=-90;" parent="1" vertex="1">
          <mxGeometry x="20" y="-2080" width="70" height="30" as="geometry" />
        </mxCell>
        <mxCell id="_8RxwVeukJIN0M9jdHfJ-38" value="" style="endArrow=open;startArrow=none;endFill=0;startFill=0;endSize=8;html=1;verticalAlign=bottom;labelBackgroundColor=none;strokeWidth=1;rounded=0;strokeColor=default;fontFamily=Helvetica;jumpStyle=none;exitX=0.004;exitY=0.304;exitDx=0;exitDy=0;exitPerimeter=0;entryX=0.25;entryY=0;entryDx=0;entryDy=0;" parent="1" source="ynwoLnUJS0dxDrimRSFe-6" target="ynwoLnUJS0dxDrimRSFe-4" edge="1">
          <mxGeometry width="160" relative="1" as="geometry">
            <mxPoint x="280" y="-2070" as="sourcePoint" />
            <mxPoint x="440" y="-2070" as="targetPoint" />
            <Array as="points">
              <mxPoint x="40" y="-2215" />
            </Array>
          </mxGeometry>
        </mxCell>
        <mxCell id="_8RxwVeukJIN0M9jdHfJ-45" value="" style="endArrow=open;startArrow=none;endFill=0;startFill=0;endSize=8;html=1;verticalAlign=bottom;labelBackgroundColor=none;strokeWidth=1;rounded=0;strokeColor=default;fontFamily=Helvetica;jumpStyle=none;exitX=0.5;exitY=1;exitDx=0;exitDy=0;entryX=0.5;entryY=0;entryDx=0;entryDy=0;" parent="1" source="ynwoLnUJS0dxDrimRSFe-3" target="ynwoLnUJS0dxDrimRSFe-14" edge="1">
          <mxGeometry width="160" relative="1" as="geometry">
            <mxPoint x="280" y="-1830" as="sourcePoint" />
            <mxPoint x="444" y="-1870" as="targetPoint" />
            <Array as="points" />
          </mxGeometry>
        </mxCell>
        <mxCell id="_8RxwVeukJIN0M9jdHfJ-47" value="- livingRoom" style="text;strokeColor=none;align=center;fillColor=none;html=1;verticalAlign=middle;whiteSpace=wrap;rounded=0;fontFamily=Helvetica;rotation=-90;" parent="1" vertex="1">
          <mxGeometry x="580" y="-1870" width="70" height="30" as="geometry" />
        </mxCell>
        <mxCell id="_8RxwVeukJIN0M9jdHfJ-48" value="" style="endArrow=none;startArrow=diamondThin;endFill=0;startFill=1;html=1;verticalAlign=bottom;labelBackgroundColor=none;strokeWidth=1;startSize=8;endSize=8;rounded=0;strokeColor=default;fontFamily=Helvetica;jumpStyle=none;exitX=0.5;exitY=1;exitDx=0;exitDy=0;" parent="1" source="ynwoLnUJS0dxDrimRSFe-12" edge="1">
          <mxGeometry width="160" relative="1" as="geometry">
            <mxPoint x="-230" y="-1800" as="sourcePoint" />
            <mxPoint x="-240" y="-1640" as="targetPoint" />
            <Array as="points">
              <mxPoint x="-240" y="-1670" />
            </Array>
          </mxGeometry>
        </mxCell>
        <mxCell id="_8RxwVeukJIN0M9jdHfJ-49" value="0..30" style="text;strokeColor=none;align=center;fillColor=none;html=1;verticalAlign=middle;whiteSpace=wrap;rounded=0;fontFamily=Helvetica;rotation=90;" parent="1" vertex="1">
          <mxGeometry x="-260" y="-1680" width="60" height="30" as="geometry" />
        </mxCell>
        <mxCell id="_8RxwVeukJIN0M9jdHfJ-50" value="-contains" style="text;strokeColor=none;align=center;fillColor=none;html=1;verticalAlign=middle;whiteSpace=wrap;rounded=0;fontFamily=Helvetica;rotation=-90;" parent="1" vertex="1">
          <mxGeometry x="-280" y="-1688" width="60" height="30" as="geometry" />
        </mxCell>
        <mxCell id="_8RxwVeukJIN0M9jdHfJ-55" value="&amp;lt;&amp;lt;enumeration&amp;gt;&amp;gt;&lt;br&gt;&lt;b&gt;ItemTileType&lt;/b&gt;" style="swimlane;fontStyle=0;align=center;verticalAlign=top;childLayout=stackLayout;horizontal=1;startSize=40;horizontalStack=0;resizeParent=1;resizeParentMax=0;resizeLast=0;collapsible=0;marginBottom=0;html=1;fontFamily=Helvetica;" parent="1" vertex="1">
          <mxGeometry x="-160" y="-2240" width="140" height="140" as="geometry" />
        </mxCell>
        <mxCell id="_8RxwVeukJIN0M9jdHfJ-56" value="Cat&lt;br&gt;Book&lt;br&gt;Game&lt;br&gt;Trophy&lt;br&gt;Plant&lt;br&gt;Frame" style="text;html=1;strokeColor=none;fillColor=none;align=left;verticalAlign=middle;spacingLeft=4;spacingRight=4;overflow=hidden;rotatable=0;points=[[0,0.5],[1,0.5]];portConstraint=eastwest;fontFamily=Helvetica;" parent="_8RxwVeukJIN0M9jdHfJ-55" vertex="1">
          <mxGeometry y="40" width="140" height="100" as="geometry" />
        </mxCell>
        <mxCell id="_8RxwVeukJIN0M9jdHfJ-64" value="0..2" style="text;strokeColor=none;align=center;fillColor=none;html=1;verticalAlign=middle;whiteSpace=wrap;rounded=0;fontFamily=Helvetica;" parent="1" vertex="1">
          <mxGeometry x="620" y="-1590" width="60" height="30" as="geometry" />
        </mxCell>
        <mxCell id="B23eoVKcwHAaxWwS9KBI-2" style="edgeStyle=none;curved=1;rounded=0;orthogonalLoop=1;jettySize=auto;html=1;entryX=0.5;entryY=0;entryDx=0;entryDy=0;fontSize=12;startSize=8;endSize=8;" parent="1" target="ynwoLnUJS0dxDrimRSFe-34" edge="1">
          <mxGeometry relative="1" as="geometry">
            <mxPoint x="630" y="-1660" as="sourcePoint" />
          </mxGeometry>
        </mxCell>
        <mxCell id="_8RxwVeukJIN0M9jdHfJ-65" value="- commonGoal" style="text;strokeColor=none;align=center;fillColor=none;html=1;verticalAlign=middle;whiteSpace=wrap;rounded=0;fontFamily=Helvetica;rotation=-90;" parent="1" vertex="1">
          <mxGeometry x="575" y="-1630" width="90" height="30" as="geometry" />
        </mxCell>
        <mxCell id="_8RxwVeukJIN0M9jdHfJ-67" value="0..1" style="text;strokeColor=none;align=center;fillColor=none;html=1;verticalAlign=middle;whiteSpace=wrap;rounded=0;fontFamily=Helvetica;rotation=0;" parent="1" vertex="1">
          <mxGeometry x="340" y="-1740" width="60" height="30" as="geometry" />
        </mxCell>
        <mxCell id="_8RxwVeukJIN0M9jdHfJ-68" value="-Bag" style="text;strokeColor=none;align=center;fillColor=none;html=1;verticalAlign=middle;whiteSpace=wrap;rounded=0;fontFamily=Helvetica;rotation=-90;" parent="1" vertex="1">
          <mxGeometry x="310" y="-1750" width="60" height="30" as="geometry" />
        </mxCell>
        <mxCell id="_8RxwVeukJIN0M9jdHfJ-71" value="0..1" style="text;strokeColor=none;align=center;fillColor=none;html=1;verticalAlign=middle;whiteSpace=wrap;rounded=0;fontFamily=Helvetica;" parent="1" vertex="1">
          <mxGeometry x="620" y="-1840" width="60" height="30" as="geometry" />
        </mxCell>
        <mxCell id="_8RxwVeukJIN0M9jdHfJ-72" value="0..1" style="text;strokeColor=none;align=center;fillColor=none;html=1;verticalAlign=middle;whiteSpace=wrap;rounded=0;fontFamily=Helvetica;" parent="1" vertex="1">
          <mxGeometry x="-160" y="-1960" width="60" height="30" as="geometry" />
        </mxCell>
        <mxCell id="_8RxwVeukJIN0M9jdHfJ-73" value="" style="endArrow=open;startArrow=none;endFill=0;startFill=0;endSize=8;html=1;verticalAlign=bottom;labelBackgroundColor=none;strokeWidth=1;rounded=0;strokeColor=default;fontFamily=Helvetica;jumpStyle=none;exitX=0;exitY=0.5;exitDx=0;exitDy=0;entryX=0.5;entryY=0;entryDx=0;entryDy=0;" parent="1" source="ynwoLnUJS0dxDrimRSFe-3" target="ynwoLnUJS0dxDrimRSFe-31" edge="1">
          <mxGeometry width="160" relative="1" as="geometry">
            <mxPoint x="150" y="-1820" as="sourcePoint" />
            <mxPoint x="310" y="-1820" as="targetPoint" />
            <Array as="points">
              <mxPoint x="354" y="-1960" />
            </Array>
          </mxGeometry>
        </mxCell>
        <mxCell id="_8RxwVeukJIN0M9jdHfJ-76" value="" style="endArrow=none;startArrow=diamondThin;endFill=0;startFill=1;html=1;verticalAlign=bottom;labelBackgroundColor=none;strokeWidth=1;startSize=8;endSize=8;rounded=0;strokeColor=default;fontFamily=Helvetica;jumpStyle=none;exitX=-0.018;exitY=0.635;exitDx=0;exitDy=0;entryX=1;entryY=0.25;entryDx=0;entryDy=0;exitPerimeter=0;" parent="1" source="ynwoLnUJS0dxDrimRSFe-31" target="ynwoLnUJS0dxDrimRSFe-30" edge="1">
          <mxGeometry width="160" relative="1" as="geometry">
            <mxPoint x="-50" y="-1790" as="sourcePoint" />
            <mxPoint x="-50" y="-1570" as="targetPoint" />
            <Array as="points">
              <mxPoint x="20" y="-1620" />
            </Array>
          </mxGeometry>
        </mxCell>
        <mxCell id="_8RxwVeukJIN0M9jdHfJ-77" value="0..132" style="text;strokeColor=none;align=center;fillColor=none;html=1;verticalAlign=middle;whiteSpace=wrap;rounded=0;fontFamily=Helvetica;" parent="1" vertex="1">
          <mxGeometry x="-150" y="-1640" width="60" height="30" as="geometry" />
        </mxCell>
        <mxCell id="_8RxwVeukJIN0M9jdHfJ-78" value="contains" style="text;strokeColor=none;align=center;fillColor=none;html=1;verticalAlign=middle;whiteSpace=wrap;rounded=0;fontFamily=Helvetica;" parent="1" vertex="1">
          <mxGeometry x="-30" y="-1620" width="60" height="30" as="geometry" />
        </mxCell>
        <mxCell id="_8RxwVeukJIN0M9jdHfJ-80" value="&amp;lt;&amp;lt;enumeration&amp;gt;&amp;gt;&lt;br&gt;&lt;b&gt;CommonGoalType&lt;/b&gt;" style="swimlane;fontStyle=0;align=center;verticalAlign=top;childLayout=stackLayout;horizontal=1;startSize=40;horizontalStack=0;resizeParent=1;resizeParentMax=0;resizeLast=0;collapsible=0;marginBottom=0;html=1;fontFamily=Helvetica;" parent="1" vertex="1">
          <mxGeometry x="-335" y="-2330" width="150" height="230" as="geometry" />
        </mxCell>
        <mxCell id="_8RxwVeukJIN0M9jdHfJ-81" value="CommonGoal01&lt;br&gt;CommonGoal02&lt;br&gt;CommonGoal03&lt;br&gt;CommonGoal04&lt;br&gt;CommonGoal05&lt;br&gt;CommonGoal06&lt;br&gt;CommonGoal07&lt;br&gt;CommonGoal08&lt;br&gt;CommonGoal09&lt;br&gt;CommonGoal10&lt;br&gt;CommonGoal11&lt;br&gt;CommonGoal12" style="text;html=1;strokeColor=none;fillColor=none;align=left;verticalAlign=middle;spacingLeft=4;spacingRight=4;overflow=hidden;rotatable=0;points=[[0,0.5],[1,0.5]];portConstraint=eastwest;fontFamily=Helvetica;" parent="_8RxwVeukJIN0M9jdHfJ-80" vertex="1">
          <mxGeometry y="40" width="150" height="190" as="geometry" />
        </mxCell>
        <mxCell id="oo3gAJDkdYnCKbN5YLv8-5" value="has&lt;br&gt;" style="endArrow=block;endFill=1;html=1;edgeStyle=orthogonalEdgeStyle;align=left;verticalAlign=top;rounded=0;entryX=0.75;entryY=0;entryDx=0;entryDy=0;exitX=0.006;exitY=0.576;exitDx=0;exitDy=0;exitPerimeter=0;" parent="1" source="ynwoLnUJS0dxDrimRSFe-6" target="ynwoLnUJS0dxDrimRSFe-4" edge="1">
          <mxGeometry x="0.2911" y="-12" relative="1" as="geometry">
            <mxPoint x="230" y="-2140" as="sourcePoint" />
            <mxPoint x="300" y="-1900" as="targetPoint" />
            <mxPoint y="1" as="offset" />
          </mxGeometry>
        </mxCell>
        <mxCell id="oo3gAJDkdYnCKbN5YLv8-6" value="1" style="edgeLabel;resizable=0;html=1;align=left;verticalAlign=bottom;" parent="oo3gAJDkdYnCKbN5YLv8-5" connectable="0" vertex="1">
          <mxGeometry x="-1" relative="1" as="geometry">
            <mxPoint x="-20" as="offset" />
          </mxGeometry>
        </mxCell>
        <mxCell id="oo3gAJDkdYnCKbN5YLv8-14" value="&lt;p style=&quot;margin:0px;margin-top:4px;text-align:center;&quot;&gt;&lt;b&gt;EndGameToken&lt;/b&gt;&lt;/p&gt;&lt;p style=&quot;margin:0px;margin-top:4px;text-align:center;&quot;&gt;&lt;b&gt;&lt;br&gt;&lt;/b&gt;&lt;/p&gt;&lt;hr size=&quot;1&quot;&gt;&lt;p style=&quot;margin:0px;margin-left:4px;&quot;&gt;endgame:ScoringTypeToken&lt;/p&gt;&lt;hr size=&quot;1&quot;&gt;&lt;p style=&quot;margin:0px;margin-left:4px;&quot;&gt;+checkGoal():Boolean&lt;/p&gt;&lt;p style=&quot;margin:0px;margin-left:4px;&quot;&gt;+getPoint():int&lt;/p&gt;" style="verticalAlign=top;align=left;overflow=fill;fontSize=12;fontFamily=Helvetica;html=1;" parent="1" vertex="1">
          <mxGeometry x="1081" y="-1600" width="160" height="110" as="geometry" />
        </mxCell>
        <mxCell id="oo3gAJDkdYnCKbN5YLv8-16" value="&lt;p style=&quot;margin:0px;margin-top:4px;text-align:center;&quot;&gt;&lt;b&gt;ScoringToken&lt;/b&gt;&lt;/p&gt;&lt;hr size=&quot;1&quot;&gt;&lt;p style=&quot;margin:0px;margin-left:4px;&quot;&gt;-type:ScoringTokensType&lt;/p&gt;&lt;hr size=&quot;1&quot;&gt;&lt;p style=&quot;margin:0px;margin-left:4px;&quot;&gt;+getPoint():int&lt;/p&gt;" style="verticalAlign=top;align=left;overflow=fill;fontSize=12;fontFamily=Helvetica;html=1;" parent="1" vertex="1">
          <mxGeometry x="550" y="-1340" width="160" height="90" as="geometry" />
        </mxCell>
        <mxCell id="oo3gAJDkdYnCKbN5YLv8-18" value="1" style="endArrow=open;html=1;endSize=12;startArrow=diamondThin;startSize=14;startFill=1;edgeStyle=orthogonalEdgeStyle;align=left;verticalAlign=bottom;rounded=0;exitX=0.5;exitY=1;exitDx=0;exitDy=0;entryX=0.5;entryY=0;entryDx=0;entryDy=0;" parent="1" source="ynwoLnUJS0dxDrimRSFe-34" target="oo3gAJDkdYnCKbN5YLv8-16" edge="1">
          <mxGeometry x="-0.75" y="10" relative="1" as="geometry">
            <mxPoint x="509.57" y="-1445" as="sourcePoint" />
            <mxPoint x="509.57" y="-1325" as="targetPoint" />
            <mxPoint as="offset" />
          </mxGeometry>
        </mxCell>
        <mxCell id="oo3gAJDkdYnCKbN5YLv8-20" value="0..4" style="text;html=1;align=center;verticalAlign=middle;resizable=0;points=[];autosize=1;strokeColor=none;fillColor=none;" parent="1" vertex="1">
          <mxGeometry x="630" y="-1370" width="40" height="30" as="geometry" />
        </mxCell>
        <mxCell id="oo3gAJDkdYnCKbN5YLv8-27" value="&amp;lt;&amp;lt;enumeration&amp;gt;&amp;gt;&lt;br&gt;&lt;b&gt;ScoringTokensType&lt;/b&gt;" style="swimlane;fontStyle=0;align=center;verticalAlign=top;childLayout=stackLayout;horizontal=1;startSize=40;horizontalStack=0;resizeParent=1;resizeParentMax=0;resizeLast=0;collapsible=0;marginBottom=0;html=1;fontFamily=Helvetica;" parent="1" vertex="1">
          <mxGeometry x="-500" y="-2240" width="140" height="140" as="geometry" />
        </mxCell>
        <mxCell id="oo3gAJDkdYnCKbN5YLv8-28" value="Token_1&lt;br&gt;Token_2&lt;br&gt;Token_4&lt;br&gt;Token_6&lt;br&gt;Token_8" style="text;html=1;strokeColor=none;fillColor=none;align=left;verticalAlign=middle;spacingLeft=4;spacingRight=4;overflow=hidden;rotatable=0;points=[[0,0.5],[1,0.5]];portConstraint=eastwest;fontFamily=Helvetica;" parent="oo3gAJDkdYnCKbN5YLv8-27" vertex="1">
          <mxGeometry y="40" width="140" height="100" as="geometry" />
        </mxCell>
        <mxCell id="oo3gAJDkdYnCKbN5YLv8-29" value="1" style="endArrow=open;html=1;endSize=12;startArrow=diamondThin;startSize=14;startFill=1;edgeStyle=orthogonalEdgeStyle;align=left;verticalAlign=bottom;rounded=0;entryX=1;entryY=0.5;entryDx=0;entryDy=0;" parent="1" target="oo3gAJDkdYnCKbN5YLv8-16" edge="1">
          <mxGeometry x="-0.9461" y="10" relative="1" as="geometry">
            <mxPoint x="1160" y="-1487" as="sourcePoint" />
            <mxPoint x="840" y="-1310" as="targetPoint" />
            <Array as="points">
              <mxPoint x="1160" y="-1295" />
            </Array>
            <mxPoint as="offset" />
          </mxGeometry>
        </mxCell>
        <mxCell id="oo3gAJDkdYnCKbN5YLv8-31" style="edgeStyle=orthogonalEdgeStyle;rounded=0;orthogonalLoop=1;jettySize=auto;html=1;exitX=0.5;exitY=1;exitDx=0;exitDy=0;" parent="1" source="_8RxwVeukJIN0M9jdHfJ-78" target="_8RxwVeukJIN0M9jdHfJ-78" edge="1">
          <mxGeometry relative="1" as="geometry" />
        </mxCell>
        <mxCell id="2AwgDu2vrWK0yXP66f5k-1" value="" style="endArrow=open;startArrow=none;endFill=0;startFill=0;endSize=8;html=1;verticalAlign=bottom;labelBackgroundColor=none;strokeWidth=1;rounded=0;strokeColor=default;fontFamily=Helvetica;jumpStyle=none;entryX=1;entryY=0.25;entryDx=0;entryDy=0;" edge="1" parent="1" target="ynwoLnUJS0dxDrimRSFe-6">
          <mxGeometry width="160" relative="1" as="geometry">
            <mxPoint x="820" y="-2230" as="sourcePoint" />
            <mxPoint x="760" y="-2085" as="targetPoint" />
            <Array as="points">
              <mxPoint x="760" y="-2230" />
            </Array>
          </mxGeometry>
        </mxCell>
        <mxCell id="2AwgDu2vrWK0yXP66f5k-2" value="&lt;p style=&quot;margin:0px;margin-top:4px;text-align:center;&quot;&gt;&lt;/p&gt;&lt;div style=&quot;height:2px;&quot;&gt;&lt;b&gt;&lt;br&gt;&lt;/b&gt;&lt;/div&gt;&lt;div style=&quot;height:2px;&quot;&gt;&lt;b&gt;&lt;br&gt;&lt;/b&gt;&lt;/div&gt;&lt;div style=&quot;height:2px;&quot;&gt;&lt;b&gt;&lt;br&gt;&lt;/b&gt;&lt;/div&gt;&lt;div style=&quot;height:2px;&quot;&gt;&lt;b&gt;&lt;br&gt;&lt;/b&gt;&lt;/div&gt;&lt;div style=&quot;height:2px;&quot;&gt;&lt;b&gt;&lt;br&gt;&lt;/b&gt;&lt;/div&gt;&lt;div style=&quot;height:2px;&quot;&gt;&lt;b&gt;&amp;nbsp; &amp;nbsp; &amp;nbsp; &amp;nbsp;&amp;nbsp;&lt;/b&gt;&lt;/div&gt;&lt;div style=&quot;height:2px;&quot;&gt;&lt;b&gt;&lt;br&gt;&lt;/b&gt;&lt;/div&gt;&lt;div style=&quot;height:2px;&quot;&gt;&lt;b&gt;&amp;nbsp; &amp;nbsp; &amp;nbsp; &amp;nbsp; GameController&lt;/b&gt;&lt;/div&gt;" style="verticalAlign=top;align=left;overflow=fill;fontSize=12;fontFamily=Helvetica;html=1;whiteSpace=wrap;fillColor=#dae8fc;strokeColor=#6c8ebf;" vertex="1" parent="1">
          <mxGeometry x="820" y="-2260" width="140" height="60" as="geometry" />
        </mxCell>
        <mxCell id="2AwgDu2vrWK0yXP66f5k-3" value="&lt;p style=&quot;margin:0px;margin-top:4px;text-align:center;&quot;&gt;&lt;/p&gt;&lt;div style=&quot;height:2px;&quot;&gt;&lt;b&gt;&lt;br&gt;&lt;/b&gt;&lt;/div&gt;&lt;div style=&quot;height:2px;&quot;&gt;&lt;b&gt;&lt;br&gt;&lt;/b&gt;&lt;/div&gt;&lt;div style=&quot;height:2px;&quot;&gt;&lt;b&gt;&lt;br&gt;&lt;/b&gt;&lt;/div&gt;&lt;div style=&quot;height:2px;&quot;&gt;&lt;b&gt;&lt;br&gt;&lt;/b&gt;&lt;/div&gt;&lt;div style=&quot;height:2px;&quot;&gt;&lt;b&gt;&lt;br&gt;&lt;/b&gt;&lt;/div&gt;&lt;div style=&quot;height:2px;&quot;&gt;&lt;b&gt;&amp;nbsp; &amp;nbsp; &amp;nbsp; &amp;nbsp;&amp;nbsp;&lt;/b&gt;&lt;/div&gt;&lt;div style=&quot;height:2px;&quot;&gt;&lt;b&gt;&lt;br&gt;&lt;/b&gt;&lt;/div&gt;&lt;div style=&quot;height:2px;&quot;&gt;&lt;b&gt;&amp;nbsp; GameBoardController&lt;/b&gt;&lt;/div&gt;" style="verticalAlign=top;align=left;overflow=fill;fontSize=12;fontFamily=Helvetica;html=1;whiteSpace=wrap;fillColor=#dae8fc;strokeColor=#6c8ebf;" vertex="1" parent="1">
          <mxGeometry x="810" y="-2095" width="140" height="60" as="geometry" />
        </mxCell>
        <mxCell id="2AwgDu2vrWK0yXP66f5k-5" value="" style="endArrow=open;startArrow=none;endFill=0;startFill=0;endSize=8;html=1;verticalAlign=bottom;labelBackgroundColor=none;strokeWidth=1;rounded=0;strokeColor=default;fontFamily=Helvetica;jumpStyle=none;entryX=1;entryY=0.75;entryDx=0;entryDy=0;exitX=0.5;exitY=1;exitDx=0;exitDy=0;" edge="1" parent="1" source="2AwgDu2vrWK0yXP66f5k-3" target="ynwoLnUJS0dxDrimRSFe-3">
          <mxGeometry width="160" relative="1" as="geometry">
            <mxPoint x="1086" y="-1950" as="sourcePoint" />
            <mxPoint x="740" y="-1950" as="targetPoint" />
            <Array as="points">
              <mxPoint x="880" y="-1930" />
            </Array>
          </mxGeometry>
        </mxCell>
      </root>
    </mxGraphModel>
  </diagram>
</mxfile>
